HIERARCHY
ROOT Hips
{
	OFFSET 0.000000 0.000000 0.000000
	CHANNELS 6 Xposition Yposition Zposition Zrotation Yrotation Xrotation 
	JOINT Spine1
	{
		OFFSET -0.013727 5.003763 -0.053727
		CHANNELS 3 Zrotation Yrotation Xrotation
		JOINT Spine2
		{
			OFFSET -0.000000 7.125301 -0.029825
			CHANNELS 3 Zrotation Yrotation Xrotation
			JOINT Chest
			{
				OFFSET -0.000001 7.550064 -0.815971
				CHANNELS 3 Zrotation Yrotation Xrotation
				JOINT Neck1
				{
					OFFSET -0.181676 26.311296 -0.553348
					CHANNELS 3 Zrotation Yrotation Xrotation
					JOINT Neck2
					{
						OFFSET -0.000003 7.709399 2.302586
						CHANNELS 3 Zrotation Yrotation Xrotation
						JOINT Head
						{
							OFFSET -0.000005 6.128913 1.953709
							CHANNELS 3 Zrotation Yrotation Xrotation
							JOINT HeadEnd
							{
								OFFSET 0.003598 16.065401 -1.835380
								CHANNELS 3 Zrotation Yrotation Xrotation
								End Site
								{
									OFFSET 0.000000 0.000000 0.000000
								}
							}
							JOINT Jaw
							{
								OFFSET 0.002637 0.475591 3.094940
								CHANNELS 3 Zrotation Yrotation Xrotation
								End Site
								{
									OFFSET 0.000000 0.000000 0.000000
								}
							}
							JOINT LeftEye
							{
								OFFSET 3.206381 5.380207 7.586883
								CHANNELS 3 Zrotation Yrotation Xrotation
								End Site
								{
									OFFSET 0.000000 0.000000 0.000000
								}
							}
							JOINT RightEye
							{
								OFFSET -3.222440 5.361867 7.558232
								CHANNELS 3 Zrotation Yrotation Xrotation
								End Site
								{
									OFFSET 0.000000 0.000000 0.000000
								}
							}
						}
					}
				}
				JOINT LeftShoulder
				{
					OFFSET 1.621652 23.237164 5.113413
					CHANNELS 3 Zrotation Yrotation Xrotation
					JOINT LeftArm
					{
						OFFSET 14.919845 0.000000 -5.502326
						CHANNELS 3 Zrotation Yrotation Xrotation
						JOINT LeftForeArm
						{
							OFFSET 28.739309 0.000002 -0.002588
							CHANNELS 3 Zrotation Yrotation Xrotation
							JOINT LeftHand
							{
								OFFSET 27.093979 -0.000003 0.002609
								CHANNELS 3 Zrotation Yrotation Xrotation
								JOINT LeftHandThumb1
								{
									OFFSET 2.276481 -1.392045 3.191413
									CHANNELS 3 Zrotation Yrotation Xrotation
									JOINT LeftHandThumb2
									{
										OFFSET 4.012841 -1.828126 1.641655
										CHANNELS 3 Zrotation Yrotation Xrotation
										JOINT LeftHandThumb3
										{
											OFFSET 2.798516 0.000001 -0.000004
											CHANNELS 3 Zrotation Yrotation Xrotation
											JOINT LeftHandThumbEnd
											{
												OFFSET 3.180791 -0.000001 0.000003
												CHANNELS 3 Zrotation Yrotation Xrotation
												End Site
												{
													OFFSET 0.000000 0.000000 0.000000
												}
											}
										}
									}
								}
								JOINT LeftHandIndex1
								{
									OFFSET 3.247553 -0.531998 2.296169
									CHANNELS 3 Zrotation Yrotation Xrotation
									JOINT LeftHandIndex2
									{
										OFFSET 6.364579 0.012062 0.178600
										CHANNELS 3 Zrotation Yrotation Xrotation
										JOINT LeftHandIndex3
										{
											OFFSET 3.662366 0.000001 0.000000
											CHANNELS 3 Zrotation Yrotation Xrotation
											JOINT LeftHandIndex4
											{
												OFFSET 2.329243 0.000003 0.000004
												CHANNELS 3 Zrotation Yrotation Xrotation
												JOINT LeftHandIndexEnd
												{
													OFFSET 2.759619 -0.180539 -0.113024
													CHANNELS 3 Zrotation Yrotation Xrotation
													End Site
													{
														OFFSET 0.000000 0.000000 0.000000
													}
												}
											}
										}
									}
								}
								JOINT LeftHandMiddle1
								{
									OFFSET 3.163499 0.240982 1.000332
									CHANNELS 3 Zrotation Yrotation Xrotation
									JOINT LeftHandMiddle2
									{
										OFFSET 6.190778 -0.259276 -1.002548
										CHANNELS 3 Zrotation Yrotation Xrotation
										JOINT LeftHandMiddle3
										{
											OFFSET 4.356523 -0.000006 0.000000
											CHANNELS 3 Zrotation Yrotation Xrotation
											JOINT LeftHandMiddle4
											{
												OFFSET 2.996875 -0.000006 0.000001
												CHANNELS 3 Zrotation Yrotation Xrotation
												JOINT LeftHandMiddleEnd
												{
													OFFSET 2.304294 -0.294571 -0.031739
													CHANNELS 3 Zrotation Yrotation Xrotation
													End Site
													{
														OFFSET 0.000000 0.000000 0.000000
													}
												}
											}
										}
									}
								}
								JOINT LeftHandRing1
								{
									OFFSET 2.882642 -0.053650 -0.322543
									CHANNELS 3 Zrotation Yrotation Xrotation
									JOINT LeftHandRing2
									{
										OFFSET 5.854543 -0.486203 -1.373841
										CHANNELS 3 Zrotation Yrotation Xrotation
										JOINT LeftHandRing3
										{
											OFFSET 4.350580 0.000001 0.000004
											CHANNELS 3 Zrotation Yrotation Xrotation
											JOINT LeftHandRing4
											{
												OFFSET 2.651324 0.000008 0.000003
												CHANNELS 3 Zrotation Yrotation Xrotation
												JOINT LeftHandRingEnd
												{
													OFFSET 1.936111 0.077685 -0.000070
													CHANNELS 3 Zrotation Yrotation Xrotation
													End Site
													{
														OFFSET 0.000000 0.000000 0.000000
													}
												}
											}
										}
									}
								}
								JOINT LeftHandPinky1
								{
									OFFSET 2.865499 -0.310004 -1.600378
									CHANNELS 3 Zrotation Yrotation Xrotation
									JOINT LeftHandPinky2
									{
										OFFSET 5.087853 -1.331141 -1.771231
										CHANNELS 3 Zrotation Yrotation Xrotation
										JOINT LeftHandPinky3
										{
											OFFSET 3.070975 0.000003 0.000001
											CHANNELS 3 Zrotation Yrotation Xrotation
											JOINT LeftHandPinky4
											{
												OFFSET 1.549668 0.000000 0.000001
												CHANNELS 3 Zrotation Yrotation Xrotation
												JOINT LeftHandPinkyEnd
												{
													OFFSET 1.944895 -0.157801 0.057219
													CHANNELS 3 Zrotation Yrotation Xrotation
													End Site
													{
														OFFSET 0.000000 0.000000 0.000000
													}
												}
											}
										}
									}
								}
							}
						}
					}
				}
				JOINT RightShoulder
				{
					OFFSET -1.380118 23.180307 5.214158
					CHANNELS 3 Zrotation Yrotation Xrotation
					JOINT RightArm
					{
						OFFSET -15.037197 0.000012 -5.545604
						CHANNELS 3 Zrotation Yrotation Xrotation
						JOINT RightForeArm
						{
							OFFSET -28.736639 0.000003 -0.002597
							CHANNELS 3 Zrotation Yrotation Xrotation
							JOINT RightHand
							{
								OFFSET -27.133617 0.000000 0.002613
								CHANNELS 3 Zrotation Yrotation Xrotation
								JOINT RightHandThumb1
								{
									OFFSET -2.274037 -1.383990 3.163127
									CHANNELS 3 Zrotation Yrotation Xrotation
									JOINT RightHandThumb2
									{
										OFFSET -4.011429 -1.827468 1.640914
										CHANNELS 3 Zrotation Yrotation Xrotation
										JOINT RightHandThumb3
										{
											OFFSET -2.794934 -0.000003 -0.000003
											CHANNELS 3 Zrotation Yrotation Xrotation
											JOINT RightHandThumbEnd
											{
												OFFSET -3.183854 0.000003 0.000000
												CHANNELS 3 Zrotation Yrotation Xrotation
												End Site
												{
													OFFSET 0.000000 0.000000 0.000000
												}
											}
										}
									}
								}
								JOINT RightHandIndex1
								{
									OFFSET -3.253269 -0.520060 2.282866
									CHANNELS 3 Zrotation Yrotation Xrotation
									JOINT RightHandIndex2
									{
										OFFSET -6.341917 0.012473 0.178265
										CHANNELS 3 Zrotation Yrotation Xrotation
										JOINT RightHandIndex3
										{
											OFFSET -3.654875 -0.000009 -0.000001
											CHANNELS 3 Zrotation Yrotation Xrotation
											JOINT RightHandIndex4
											{
												OFFSET -2.327586 -0.000000 0.000000
												CHANNELS 3 Zrotation Yrotation Xrotation
												JOINT RightHandIndexEnd
												{
													OFFSET -2.761789 -0.180657 -0.113078
													CHANNELS 3 Zrotation Yrotation Xrotation
													End Site
													{
														OFFSET 0.000000 0.000000 0.000000
													}
												}
											}
										}
									}
								}
								JOINT RightHandMiddle1
								{
									OFFSET -3.168106 0.246594 1.001030
									CHANNELS 3 Zrotation Yrotation Xrotation
									JOINT RightHandMiddle2
									{
										OFFSET -6.180830 -0.258836 -1.000896
										CHANNELS 3 Zrotation Yrotation Xrotation
										JOINT RightHandMiddle3
										{
											OFFSET -4.348906 -0.000000 -0.000001
											CHANNELS 3 Zrotation Yrotation Xrotation
											JOINT RightHandMiddle4
											{
												OFFSET -3.000242 -0.000004 -0.000002
												CHANNELS 3 Zrotation Yrotation Xrotation
												JOINT RightHandMiddleEnd
												{
													OFFSET -2.302518 -0.294371 -0.031706
													CHANNELS 3 Zrotation Yrotation Xrotation
													End Site
													{
														OFFSET 0.000000 0.000000 0.000000
													}
												}
											}
										}
									}
								}
								JOINT RightHandRing1
								{
									OFFSET -2.885694 -0.067952 -0.308859
									CHANNELS 3 Zrotation Yrotation Xrotation
									JOINT RightHandRing2
									{
										OFFSET -5.854196 -0.486132 -1.373732
										CHANNELS 3 Zrotation Yrotation Xrotation
										JOINT RightHandRing3
										{
											OFFSET -4.338814 -0.000003 -0.000001
											CHANNELS 3 Zrotation Yrotation Xrotation
											JOINT RightHandRing4
											{
												OFFSET -2.654905 -0.000004 0.000004
												CHANNELS 3 Zrotation Yrotation Xrotation
												JOINT RightHandRingEnd
												{
													OFFSET -1.933570 0.077524 -0.000052
													CHANNELS 3 Zrotation Yrotation Xrotation
													End Site
													{
														OFFSET 0.000000 0.000000 0.000000
													}
												}
											}
										}
									}
								}
								JOINT RightHandPinky1
								{
									OFFSET -2.866429 -0.342798 -1.584145
									CHANNELS 3 Zrotation Yrotation Xrotation
									JOINT RightHandPinky2
									{
										OFFSET -5.091370 -1.332054 -1.772385
										CHANNELS 3 Zrotation Yrotation Xrotation
										JOINT RightHandPinky3
										{
											OFFSET -3.062666 -0.000006 0.000000
											CHANNELS 3 Zrotation Yrotation Xrotation
											JOINT RightHandPinky4
											{
												OFFSET -1.546527 0.000005 -0.000003
												CHANNELS 3 Zrotation Yrotation Xrotation
												JOINT RightHandPinkyEnd
												{
													OFFSET -1.945122 -0.157722 0.057211
													CHANNELS 3 Zrotation Yrotation Xrotation
													End Site
													{
														OFFSET 0.000000 0.000000 0.000000
													}
												}
											}
										}
									}
								}
							}
						}
					}
				}
			}
		}
	}
	JOINT LeftLeg
	{
		OFFSET 10.043214 -8.434526 2.595655
		CHANNELS 3 Zrotation Yrotation Xrotation
		JOINT LeftShin
		{
			OFFSET -0.000001 -43.221752 -0.802913
			CHANNELS 3 Zrotation Yrotation Xrotation
			JOINT LeftFoot
			{
				OFFSET 0.000001 -42.155094 -3.481523
				CHANNELS 3 Zrotation Yrotation Xrotation
				JOINT LeftToeBase
				{
					OFFSET 0.000000 -5.059475 13.231529
					CHANNELS 3 Zrotation Yrotation Xrotation
					JOINT LeftToeEnd
					{
						OFFSET -0.009607 -1.647615 6.513017
						CHANNELS 3 Zrotation Yrotation Xrotation
						End Site
						{
							OFFSET 0.000000 0.000000 0.000000
						}
					}
				}
			}
		}
	}
	JOINT RightLeg
	{
		OFFSET -10.047277 -8.295260 2.620317
		CHANNELS 3 Zrotation Yrotation Xrotation
		JOINT RightShin
		{
			OFFSET 0.000001 -43.362209 -0.805556
			CHANNELS 3 Zrotation Yrotation Xrotation
			JOINT RightFoot
			{
				OFFSET 0.000002 -42.117393 -3.478398
				CHANNELS 3 Zrotation Yrotation Xrotation
				JOINT RightToeBase
				{
					OFFSET -0.000001 -5.079609 13.284196
					CHANNELS 3 Zrotation Yrotation Xrotation
					JOINT RightToeEnd
					{
						OFFSET 0.009532 -1.634383 6.460591
						CHANNELS 3 Zrotation Yrotation Xrotation
						End Site
						{
							OFFSET 0.000000 0.000000 0.000000
						}
					}
				}
			}
		}
	}
}
MOTION
Frames: 4
Frame Time: 0.033333
16.501326 95.769569 7.527460 -5.946574 -21.299623 9.410753 -2.034992 -0.245243 1.931254 -0.805441 -1.008799 -3.486606 -1.152829 -3.155576 9.238160 3.219494 2.415689 -2.635072 1.077352 8.011012 -3.610689 2.175389 8.355721 -14.284878 0.000077 -0.000023 0.000006 0.015317 0.037431 -0.007919 0.731388 -3.690274 -10.681666 -0.711395 3.768892 -10.669765 -8.090018 -13.505887 10.989834 -43.592701 -23.289423 1.404457 -1.152927 -32.592457 0.526119 2.982427 1.046378 -11.246040 -5.882102 9.861278 0.702590 -10.936857 -0.360573 7.156196 -0.000001 8.774815 0.000001 -15.580516 18.033583 6.129273 -1.844031 2.498503 -2.507275 -10.163590 4.678940 4.621105 -20.975994 -0.000001 0.000003 -21.226254 2.451695 -3.593995 0.000000 -0.000006 -0.000002 -1.362679 2.240795 -0.746323 -21.334894 0.584910 3.008322 -13.821197 0.000001 0.000003 -23.887129 -0.249076 -0.839481 -59.726475 2.880017 -1.136969 -0.294025 1.679687 0.833254 -14.218194 0.093214 1.300581 -34.212006 -0.287561 0.967169 -20.033178 0.964538 1.212842 -0.000001 0.000001 -0.000002 -3.440386 0.788234 0.501657 -15.928167 -3.167304 2.999705 -6.338815 0.000000 0.000001 -18.123413 3.648180 -4.905662 -0.000004 0.000000 -0.000003 12.956923 8.234856 12.824327 66.435371 4.430444 -1.511362 -1.010316 57.792324 -0.633199 -1.347595 -1.543654 -14.517148 2.243540 -5.255033 -3.180155 14.282877 -0.826591 6.952496 -0.000002 -12.690592 0.000001 15.867828 -17.093885 2.171485 1.665665 -1.955921 -2.878297 4.727793 -4.170585 4.993918 11.020511 0.000003 -0.000000 12.109031 -3.735712 -2.866779 -0.000000 0.000000 0.000001 1.291984 -1.928548 -1.498088 14.800109 0.567467 3.865602 14.242551 -1.341733 -6.660649 19.631937 0.143927 -0.648243 48.777405 -0.522027 -6.288133 0.353027 -1.511149 -0.031938 20.222767 3.684303 2.316628 18.787245 0.000003 0.000001 10.751610 -0.479868 1.397904 -0.000000 0.000002 -0.000000 3.273803 0.305947 -0.580111 21.486792 11.830364 2.266131 8.162916 0.000003 -0.000001 18.399054 -3.798978 -4.940568 0.000002 0.000000 -0.000001 4.661438 12.580250 -13.590239 0.140180 -0.067841 36.486603 -6.113146 5.815897 -24.637178 1.617349 -1.871000 -0.443590 0.000000 0.000000 0.000002 3.752624 -13.451442 -36.422123 0.221934 -0.117859 21.260624 1.069745 -7.733173 3.773093 -1.479459 0.986816 -2.411287 -0.000000 -0.000001 -0.000001 
16.915400 96.682144 5.253644 -5.511523 -21.293182 9.332529 -2.349656 -0.263509 1.879072 -0.863545 -0.775598 -3.533511 -1.401392 -2.970791 9.097781 3.129032 2.515151 -2.498162 0.941900 7.422211 -3.580158 2.236651 7.663870 -14.047890 0.000077 -0.000022 0.000006 0.015739 0.030421 -0.007914 0.726804 -3.690916 -10.666292 -0.706111 3.761393 -10.659371 -8.266894 -13.052861 11.167148 -46.619820 -22.181177 3.421298 -1.007927 -31.843603 0.416682 2.209341 1.090247 -12.159504 -5.882100 9.861278 0.702590 -10.936859 -0.360574 7.156198 0.000001 8.774813 0.000001 -15.658281 18.166872 6.164828 -1.844031 2.498500 -2.507275 -10.163589 4.678940 4.621106 -20.975994 -0.000003 0.000002 -21.226250 2.451692 -3.593993 0.000001 -0.000006 -0.000001 -1.362682 2.240796 -0.746323 -21.334896 0.584908 3.008321 -13.821197 -0.000001 0.000004 -23.887135 -0.249081 -0.839480 -60.011158 2.806458 -1.200677 -0.294025 1.679687 0.833253 -14.218192 0.093217 1.300578 -34.212002 -0.287564 0.967170 -20.033178 0.964536 1.212843 0.000001 0.000001 -0.000001 -3.440385 0.788231 0.501656 -15.928169 -3.167307 2.999703 -6.338818 0.000000 0.000003 -18.123415 3.648175 -4.905661 -0.000004 0.000002 -0.000002 12.154646 8.456924 12.693468 66.054916 4.733372 2.597966 -1.077452 63.890377 -0.799820 0.016905 -0.940001 -8.000113 2.243540 -5.255033 -3.180156 14.282878 -0.826592 6.952497 -0.000003 -12.690588 0.000001 15.703086 -17.243587 2.264232 1.665664 -1.955919 -2.878296 4.727795 -4.170582 4.993920 11.020512 0.000003 0.000000 12.109033 -3.735708 -2.866778 0.000000 -0.000001 -0.000000 1.291986 -1.928548 -1.498088 14.800113 0.567467 3.865604 14.242556 -1.341737 -6.660648 19.631941 0.143924 -0.648243 49.046764 -0.502901 -6.416118 0.353029 -1.511148 -0.031940 20.222771 3.684308 2.316631 18.787247 0.000006 0.000003 10.751611 -0.479870 1.397906 -0.000001 0.000002 0.000001 3.273805 0.305947 -0.580111 21.486795 11.830362 2.266132 8.162917 0.000003 0.000001 18.399054 -3.798976 -4.940566 0.000002 -0.000001 -0.000001 4.156166 12.411755 -14.284900 0.122897 -0.064779 34.042206 -6.111495 6.365721 -22.624393 1.610891 -1.906676 -0.203913 0.000000 -0.000000 0.000002 1.789081 -14.703699 -33.757679 0.270939 -0.048531 23.915674 1.665057 -7.173547 4.201997 -1.496312 0.891932 -2.313157 0.000000 0.000000 -0.000001 
17.148172 97.379662 3.119200 -4.926204 -20.532440 9.247516 -2.644985 -0.337080 1.710681 -0.919722 -0.551996 -3.676280 -1.638636 -2.735917 8.965180 3.221094 2.451034 -2.163764 0.816715 6.484096 -3.600596 2.216228 6.572239 -13.697659 0.000077 -0.000023 0.000006 0.017399 0.023399 -0.011124 0.722736 -3.700215 -10.648288 -0.699776 3.750378 -10.655946 -8.510313 -12.534077 11.512049 -49.857338 -20.841145 5.976626 -0.754374 -30.887030 0.223390 1.541310 1.157963 -13.102275 -5.882102 9.861278 0.702588 -10.936858 -0.360574 7.156196 0.000001 8.774813 -0.000001 -15.734081 18.396282 6.305962 -1.844031 2.498502 -2.507277 -10.163590 4.678940 4.621103 -20.975996 -0.000003 0.000001 -21.226257 2.451691 -3.593997 -0.000000 -0.000007 0.000001 -1.362679 2.240796 -0.746323 -21.334890 0.584908 3.008317 -13.821197 -0.000003 0.000001 -23.887133 -0.249079 -0.839481 -60.241604 2.707072 -1.184554 -0.294024 1.679687 0.833255 -14.218195 0.093214 1.300578 -34.212006 -0.287568 0.967165 -20.033178 0.964534 1.212843 0.000002 0.000001 0.000001 -3.440385 0.788233 0.501654 -15.928165 -3.167305 2.999702 -6.338816 -0.000001 0.000000 -18.123415 3.648173 -4.905662 -0.000004 0.000002 -0.000001 11.486828 8.584334 12.488835 65.161659 5.014521 6.381729 -1.336620 69.763962 -1.110231 1.655208 -0.120263 -2.439541 2.243539 -5.255033 -3.180154 14.282877 -0.826595 6.952495 -0.000003 -12.690592 0.000001 15.521523 -17.590168 2.512887 1.665664 -1.955922 -2.878296 4.727792 -4.170579 4.993917 11.020511 0.000005 -0.000001 12.109030 -3.735711 -2.866779 0.000001 0.000001 0.000000 1.291983 -1.928546 -1.498088 14.800113 0.567469 3.865603 14.242553 -1.341733 -6.660648 19.631937 0.143926 -0.648242 49.585316 -0.598646 -6.439653 0.353029 -1.511148 -0.031940 20.222767 3.684310 2.316628 18.787245 0.000006 0.000001 10.751610 -0.479867 1.397903 -0.000000 0.000001 -0.000001 3.273804 0.305945 -0.580110 21.486790 11.830367 2.266132 8.162916 0.000003 0.000000 18.399050 -3.798977 -4.940567 0.000004 0.000000 0.000000 3.703745 11.791480 -15.096214 0.081689 -0.108629 31.834301 -6.102117 6.518601 -20.851139 1.600412 -1.939217 0.017893 -0.000000 0.000000 0.000001 -1.178941 -15.368041 -30.209986 0.330142 0.119032 26.231142 2.206883 -7.611314 3.877291 -1.486199 0.862201 -2.319309 -0.000000 -0.000000 -0.000001 
17.259352 97.861443 1.143324 -4.225951 -19.394081 9.099664 -2.860960 -0.357447 1.454250 -0.974112 -0.304955 -3.904574 -1.918492 -2.424550 8.964336 3.427704 2.329880 -1.753945 0.622419 5.421627 -3.629433 2.226671 5.193129 -13.309824 0.000077 -0.000023 0.000006 0.019602 0.022337 -0.013413 0.728733 -3.702407 -10.639848 -0.700557 3.746658 -10.650295 -9.009581 -11.711680 11.959151 -52.717773 -19.255281 8.270128 -0.597066 -29.996462 0.136950 1.382656 1.175194 -13.895201 -5.882101 9.861279 0.702590 -10.936858 -0.360574 7.156195 0.000001 8.774813 -0.000002 -15.770916 18.570866 6.399324 -1.844030 2.498501 -2.507278 -10.163589 4.678939 4.621104 -20.975992 -0.000004 0.000003 -21.226248 2.451690 -3.593992 0.000001 -0.000006 -0.000001 -1.362680 2.240796 -0.746323 -21.334887 0.584907 3.008320 -13.821195 -0.000001 0.000003 -23.887125 -0.249078 -0.839481 -60.331623 2.608535 -1.155552 -0.294023 1.679687 0.833255 -14.218192 0.093214 1.300579 -34.211998 -0.287566 0.967170 -20.033178 0.964534 1.212841 0.000000 0.000000 0.000000 -3.440385 0.788234 0.501654 -15.928167 -3.167307 2.999703 -6.338815 -0.000000 0.000001 -18.123413 3.648174 -4.905662 -0.000004 0.000001 0.000001 10.943204 8.804244 12.288220 64.026833 5.420275 8.986626 -0.959459 74.911995 -0.821611 2.918787 0.808169 0.991535 2.243539 -5.255032 -3.180154 14.282875 -0.826594 6.952497 -0.000003 -12.690590 -0.000000 15.447206 -17.967525 2.716571 1.665665 -1.955921 -2.878297 4.727793 -4.170585 4.993919 11.020511 0.000003 -0.000000 12.109031 -3.735709 -2.866779 -0.000000 -0.000001 0.000001 1.291984 -1.928546 -1.498088 14.800111 0.567468 3.865602 14.242553 -1.341735 -6.660648 19.631939 0.143925 -0.648243 50.041935 -0.715387 -6.415876 0.353029 -1.511147 -0.031940 20.222771 3.684306 2.316630 18.787245 0.000003 -0.000000 10.751610 -0.479867 1.397906 0.000001 0.000001 0.000001 3.273804 0.305947 -0.580109 21.486792 11.830362 2.266131 8.162915 0.000000 -0.000001 18.399055 -3.798978 -4.940567 0.000003 -0.000000 -0.000001 3.240896 10.914681 -16.058136 0.031165 -0.175200 30.251238 -6.078643 6.462796 -19.216543 1.587104 -1.957025 0.154190 -0.000000 0.000000 0.000002 -4.637994 -15.410561 -25.864714 0.363831 0.261539 28.007257 2.686424 -8.633735 3.451929 -1.472900 0.850741 -2.340963 -0.000000 0.000002 -0.000001 
